<svg width="155" height="137" viewBox="0 0 155 137" fill="none" xmlns="http://www.w3.org/2000/svg">
<path d="M68.451 14.0507C66.6069 9.0101 62.5692 5.81129 57.5286 3.37501C47.0139 -1.49107 34.8945 -0.741454 24.2957 3.36855C3.54451 11.8276 -3.00373 36.4618 1.21509 56.9019C5.00685 73.7168 21.1316 94.312 33.6004 106.002C38.091 109.705 30.9992 97.8792 30.831 95.081C30.4492 92.5349 30.3522 89.937 30.7339 87.4749C31.5233 81.213 36.2792 75.9527 42.4651 74.7055C50.6827 72.9542 59.5474 76.8768 67.8492 74.195C76.8498 71.9526 83.7798 62.7051 81.968 53.3865C80.4474 45.6576 74.2421 39.3892 72.1651 31.7185C70.1786 26.1416 70.308 19.3368 68.4898 14.167L68.451 14.0507Z" fill="url(#paint0_linear_3_195)"/>
<path d="M95.841 34.2711C97.8857 34.3357 101.47 33.8898 102.331 33.7347C112.257 31.9899 116.987 30.4777 124.389 39.8609C129.805 46.7303 129.43 56.7145 128.679 65.277C128.084 76.0302 123.056 84.7801 115.719 92.3862C107.19 101.711 94.9804 106.933 82.3757 106.222C74.2163 105.912 66.4386 102.125 60.4922 96.8775C56.4416 93.5301 52.1322 83.4942 44.9175 87.1647C39.4239 89.9564 42.1351 100.949 45.2798 106.08C47.4798 109.666 50.1392 112.439 53.161 115.36C56.7651 118.81 62.1422 124.109 66.1863 128.006C70.0428 131.651 73.2975 134.611 77.691 136.22C81.8969 137.713 86.1222 135.393 89.4869 132.956C95.7569 128.187 101.399 123.166 107.727 117.615C112.438 113.421 117.815 108.91 122.06 104.826C130.556 96.2701 146.473 77.4196 151.76 60.1266C154.342 51.9583 154.769 43.1567 153.157 34.7751C150.731 21.2884 140.734 10.2961 128.317 4.89364C117.75 -0.0499873 103.418 1.63665 92.968 6.57382C88.7816 8.66759 85.4557 11.9957 83.961 16.3512C81.3533 24.0607 81.6057 33.3922 89.9786 34.0578L95.841 34.2711Z" fill="url(#paint1_linear_3_195)"/>
<path d="M103.606 62.5952C107.708 62.5952 111.034 59.2738 111.034 55.1765C111.034 51.0793 107.708 47.7578 103.606 47.7578C99.5032 47.7578 96.1775 51.0793 96.1775 55.1765C96.1775 59.2738 99.5032 62.5952 103.606 62.5952Z" fill="url(#paint2_linear_3_195)"/>
<path d="M92.8192 77.2581C95.6388 77.2581 97.9245 74.9753 97.9245 72.1594C97.9245 69.3434 95.6388 67.0606 92.8192 67.0606C89.9996 67.0606 87.7139 69.3434 87.7139 72.1594C87.7139 74.9753 89.9996 77.2581 92.8192 77.2581Z" fill="url(#paint3_linear_3_195)"/>
<path d="M108.484 82.0208C111.304 82.0208 113.59 79.738 113.59 76.922C113.59 74.1061 111.304 71.8233 108.484 71.8233C105.665 71.8233 103.379 74.1061 103.379 76.922C103.379 79.738 105.665 82.0208 108.484 82.0208Z" fill="url(#paint4_linear_3_195)"/>
<path d="M75.1933 91.7852C77.5626 91.7852 79.4833 89.867 79.4833 87.5008C79.4833 85.1345 77.5626 83.2163 75.1933 83.2163C72.824 83.2163 70.9033 85.1345 70.9033 87.5008C70.9033 89.867 72.824 91.7852 75.1933 91.7852Z" fill="url(#paint5_linear_3_195)"/>
<path d="M94.7669 93.4461C97.3828 93.4461 99.5034 91.3282 99.5034 88.7157C99.5034 86.1032 97.3828 83.9853 94.7669 83.9853C92.151 83.9853 90.0304 86.1032 90.0304 88.7157C90.0304 91.3282 92.151 93.4461 94.7669 93.4461Z" fill="url(#paint6_linear_3_195)"/>
<defs>
<linearGradient id="paint0_linear_3_195" x1="-0.00150906" y1="53.3545" x2="82.261" y2="53.3545" gradientUnits="userSpaceOnUse">
<stop stop-color="#855AAD"/>
<stop offset="1" stop-color="#D6BFDD"/>
</linearGradient>
<linearGradient id="paint1_linear_3_195" x1="41.75" y1="69.3082" x2="154.099" y2="69.3082" gradientUnits="userSpaceOnUse">
<stop stop-color="#D6BFDD"/>
<stop offset="1" stop-color="#8B65B2"/>
</linearGradient>
<linearGradient id="paint2_linear_3_195" x1="96.1803" y1="55.1737" x2="111.035" y2="55.1737" gradientUnits="userSpaceOnUse">
<stop stop-color="#D6BFDD"/>
<stop offset="1" stop-color="#8B65B2"/>
</linearGradient>
<linearGradient id="paint3_linear_3_195" x1="87.7119" y1="72.1583" x2="97.9242" y2="72.1583" gradientUnits="userSpaceOnUse">
<stop stop-color="#CCE2DF"/>
<stop offset="1" stop-color="#89B5BA"/>
</linearGradient>
<linearGradient id="paint4_linear_3_195" x1="103.375" y1="76.9206" x2="113.588" y2="76.9206" gradientUnits="userSpaceOnUse">
<stop stop-color="#D6BFDD"/>
<stop offset="1" stop-color="#8B65B2"/>
</linearGradient>
<linearGradient id="paint5_linear_3_195" x1="70.9093" y1="87.5023" x2="79.4833" y2="87.5023" gradientUnits="userSpaceOnUse">
<stop stop-color="#D8EAE9"/>
<stop offset="1" stop-color="#89B4B8"/>
</linearGradient>
<linearGradient id="paint6_linear_3_195" x1="90.0333" y1="88.7143" x2="99.5" y2="88.7143" gradientUnits="userSpaceOnUse">
<stop stop-color="#D6BFDD"/>
<stop offset="1" stop-color="#8B65B2"/>
</linearGradient>
</defs>
</svg>
